<svg xmlns="http://www.w3.org/2000/svg" xmlns:xlink="http://www.w3.org/1999/xlink" version="1.1" width="256" height="256" viewBox="0 0 256 256" xml:space="preserve">
<desc>Created with Fabric.js 1.7.22</desc>
<defs>
</defs>
<g transform="translate(128 128) scale(0.72 0.72)" style="">
	<g style="stroke: none; stroke-width: 0; stroke-dasharray: none; stroke-linecap: butt; stroke-linejoin: miter; stroke-miterlimit: 10; fill: none; fill-rule: nonzero; opacity: 1;" transform="translate(-175.05 -175.05000000000004) scale(3.89 3.89)" >
	<path d="M 90 44.93 c 0 -0.384 -0.146 -0.769 -0.439 -1.062 c -0.586 -0.587 -1.535 -0.587 -2.121 0 L 45 86.373 L 2.561 43.867 c -0.585 -0.587 -1.536 -0.587 -2.121 0 c -0.586 0.587 -0.586 1.538 0 2.124 l 43.5 43.568 c 0.585 0.587 1.536 0.587 2.121 0 l 43.5 -43.568 C 89.854 45.698 90 45.314 90 44.93 z" style="stroke: none; stroke-width: 1; stroke-dasharray: none; stroke-linecap: butt; stroke-linejoin: miter; stroke-miterlimit: 10; fill: rgb(29,29,27); fill-rule: nonzero; opacity: 1;" transform=" matrix(1 0 0 1 0 0) " stroke-linecap="round" />
	<path d="M 46.5 88.498 V 1.502 C 46.5 0.672 45.829 0 45 0 s -1.5 0.672 -1.5 1.502 v 86.995 C 43.5 89.327 44.171 90 45 90 S 46.5 89.327 46.5 88.498 z" style="stroke: none; stroke-width: 1; stroke-dasharray: none; stroke-linecap: butt; stroke-linejoin: miter; stroke-miterlimit: 10; fill: rgb(29,29,27); fill-rule: nonzero; opacity: 1;" transform=" matrix(1 0 0 1 0 0) " stroke-linecap="round" />
</g>
</g>
</svg>